<svg version="1.1" id="Layer_1" xmlns="http://www.w3.org/2000/svg" xmlns:xlink="http://www.w3.org/1999/xlink" x="0px" y="0px"
	 viewBox="0 0 24 32" style="enable-background:new 0 0 24 32;" xml:space="preserve">
<style type="text/css">
	.st0{fill:#461B00;}
	.st1{fill:#6699FF;}
	.st2{fill:#3AC125;}
	.st3{fill:#7ED732;}
	.st4{fill:#E6E6E6;}
	.st5{fill:#C2C2C2;}
	.st6{fill:#CCCCCC;}
	.st7{fill:#FFFFFF;}
	.st8{fill:#508BE0;}
	.st9{fill:#31609D;}
	.st10{fill:#2F9D1E;}
	.st11{fill:#79A9E9;}
	.st12{fill:#CF8F5B;}
	.st13{fill:#FFB170;}
	.st14{fill:#6E2D1D;}
	.st15{fill:#873824;}
	.st16{fill:#FFDEC2;}
</style>
<g id="Layer_x0020_1">
	<g id="_530460064">
		<path class="st0" d="M21.2,23.4c-1.3,0.5-2.6,0.9-4,1.1c-0.5,0.1-0.9,0.1-1.4,0.1c-0.6,0-2.8-0.4-3.6-0.6
			c-0.4-0.1-0.7-0.2-1.1-0.2c-0.3-0.1-0.6-0.1-0.8-0.2c-0.1,0-0.2,0-0.3,0c-0.1,0-0.2,0.1-0.4,0.1c-0.2,0-0.4,0-0.7,0
			c-0.4-0.1-0.9-0.2-1.2-0.5c-0.2-0.1-0.3-0.3-0.4-0.4c-0.1-0.1-0.3-0.1-0.5-0.2c-0.4-0.1-0.7,0-1,0.1c-0.4,0.2-1,0.3-1.6,0
			c-0.2-0.1-1-0.4-0.8-0.6c0.1-0.1,0.4,0,0.7,0.2c0.7,0.4,1.6,0,1.2-0.2c-0.3-0.1-0.7-0.3-1-0.5c-0.1-0.1-0.5-0.4-0.3-0.5
			c0.1-0.1,0.5,0.2,0.8,0.4c1.2,0.6,1.8,0.3,2,0.1c-0.1-0.1-0.3-0.1-0.4-0.2c-1-0.4-2.1-0.8-3-1.3c-0.7-0.4-1.5-0.9-2.1-1.4
			c-0.9-0.8-1.3-1.4,0.1-1.1c1.9,0.4,4.4,0.7,6.3,0.6c1.3-0.9,2-1.6,3.8-2.4c0.1-0.3,0.2-0.5,0.3-0.7c0.9-1.5,2.5-2.3,4.2-2.3
			c2.1-0.1,4.3,1.2,4.7,3.4l0.1,0.4c0.7,1.1,0.5,2.7-0.1,2.3l0,0L21,19c0.7,0.7,1.3,1.4,1.9,2.2c0.5,0.8,0.7,1.1,0,1.4
			C22.3,23,21.9,23.2,21.2,23.4z M7.1,22.1c0,0,0.1,0,0.1,0c0,0,0,0,0,0c0-0.2,0-0.3,0.1-0.5C7.2,21.9,6.8,21.9,7.1,22.1z"/>
		<path class="st1" d="M12.1,20.4L12.1,20.4C12.1,20.4,12.1,20.4,12.1,20.4z"/>
		<path class="st2" d="M11.1,17.9C11,18,10.9,18,10.8,18.1c0.5-0.5,0.7-1.1,0.7-1.5c-1-0.1-3.5,2.4-4.7,2.7c0,0,0.4,0.9,0.9,1.5
			c0.2,0.2,0.3,0.3,0.5,0.5c0.5,0.4,1.1,0.7,1.8,0.6c-0.1-0.2-0.2-0.5-0.1-0.7c0,0,0.2,0.6,1,1.2c0.9,0.5,2.7,1.3,5.2,1.3
			c0.4-0.3,0.8-0.8,1.4-1.5c0.3-0.4,0.7-0.7,0.9-0.9c-2-0.6-4-0.9-5.3-0.7c-0.3,0.1-0.6,0.2-0.9,0.4c0.4-0.5,1.1-1,1.7-1.1
			c0,0,0.2-1.6,0.6-2.3c0.6-1.3,1.7-1.7,3.1-2.3c0.9-0.4,1.3-1,1.4-1.2c-1.9-1.1-5-0.6-6.2,1.4c-0.3,0.4-0.6,0.8-0.8,1.4
			C11.6,17.3,11.4,17.6,11.1,17.9z"/>
		<path class="st3" d="M14.2,14.1c1.4-0.7,3.2-0.7,4.6,0c0.1-0.2,0.1-0.3,0.1-0.3c-2.1-1.4-5.3-0.9-6.6,1.3
			c-0.7,1.3-0.4,2.1-1.8,3.1l0,0C11.9,18.2,12.2,15.2,14.2,14.1z M6.9,19.3c0,0,0.3,0.7,0.8,1.5c-0.7-0.7-1.1-1.5-1.1-1.5
			c1.4-0.3,3-2.4,5-3c0,0,0,0.2,0,0.4C10.2,16.8,8.1,19,6.9,19.3z"/>
		<path class="st4" d="M18.9,13.9c0,0,1.3,1,1.5,2.3c-0.5-0.5-1.4-0.6-2-0.4c-1.1,0.4-1.6,1.4-1.3,3.2c-1.2,0.6-2.8-0.4-3-1.5
			c0.7-2,2.3-2,3.7-2.8C18.4,14.5,18.7,14.1,18.9,13.9L18.9,13.9z M18.1,20.5C18.1,20.5,18.1,20.5,18.1,20.5
			C18.1,20.5,18.1,20.5,18.1,20.5z"/>
		<path class="st5" d="M14.1,17.5c-0.2,0.6-0.3,1.4-0.3,2.4c1.8-0.4,4.3,0.6,4.3,0.6c-0.5-0.3-0.9-1-1-1.5
			C15.8,19.3,14.6,18.6,14.1,17.5z"/>
		<path class="st0" d="M15.1,16.1c0.6,0,1.1,0.4,1.2,1c0,0.6-0.4,1.1-1,1.2c-0.6,0-1.1-0.4-1.2-1c0-0.2,0-0.3,0.1-0.5
			c-0.2,0.1-0.5,0-0.6-0.2c0-0.1,0-0.1,0-0.1c0.1,0,0.1,0.1,0.3,0.1c0.3,0,0.4-0.2,0.7-0.3C14.7,16.1,14.9,16.1,15.1,16.1z"/>
		<path class="st6" d="M14.4,17.6c0,0,0-0.1-0.1-0.1c-0.1-0.4,0.1-0.9,0.6-1c0.2,0,0.4,0,0.5,0c-0.1,0-0.2,0-0.4,0
			C14.6,16.6,14.3,17.1,14.4,17.6z"/>
		<path class="st7" d="M15.6,17c-0.1,0.1-0.2,0-0.3-0.1c-0.1-0.1,0-0.2,0.1-0.3c0.1-0.1,0.2,0,0.3,0.1C15.7,16.8,15.7,17,15.6,17z"
			/>
		<path class="st8" d="M22.8,22.2c0,0-1.1,0-3.9-0.8c-0.1,0-0.2-0.1-0.3-0.1c-0.3,0.1-0.7,0.4-1.1,0.9c-0.2,0.3-0.4,0.5-0.6,0.7
			c0.6,0.2,1.8,0,2-0.1C20.5,22.8,21.9,22.5,22.8,22.2z"/>
		<path class="st9" d="M15.7,24.1c0.1,0,0.1,0,0.2,0c2.2,0.1,4.4-0.7,5.7-1.3c-1,0.2-2,0.3-2.6,0.1l0,0C18.4,23,17.7,23,17,23
			c-0.3,0.3-0.6,0.6-0.8,0.8C16,23.9,15.8,24,15.7,24.1z"/>
		<path class="st10" d="M11.5,22.8c1.5,0.9,3.4,1.7,4.5,0.8c0.2-0.2,0.4-0.4,0.6-0.6c-2.3,0-4.6-0.2-6-0.9
			C10.9,22.3,11.1,22.5,11.5,22.8z"/>
		<path class="st3" d="M18.7,21.1c-1.3-0.5-3.4-1.2-5.1-0.9c-0.4,0.1-0.8,0.2-1.2,0.4c-0.2,0.2-0.5,0.4-0.6,0.5
			c1.6-0.9,4.7-0.2,6.3,0.2C18.4,21.2,18.6,21.1,18.7,21.1z"/>
		<path class="st11" d="M22.8,22.2c0,0-1.5-0.3-2.9-0.7c-0.2-0.1-0.6-0.2-0.9-0.2c-0.2,0-0.4,0-0.6,0.2l0.2,0.1
			C21.4,22.4,22.8,22.2,22.8,22.2z"/>
		<path class="st8" d="M20.1,20.3c0.2-0.2,0.3-0.4,0.3-0.7c0.5,0.3,1.5,1.1,2.4,2.4c-0.6-0.4-1.3-0.9-1.9-1.3
			C20.7,20.7,20.4,20.6,20.1,20.3z"/>
		<path class="st11" d="M20.5,19.2c0.8,0.8,1.8,1.8,2.3,2.9c-1-1.1-1.9-1.9-2.5-2.3C20.5,19.5,20.5,19.3,20.5,19.2z"/>
		<path class="st9" d="M22.2,21.8c-0.7-0.2-2.1-0.6-2.9-1c0.4-0.1,0.6-0.3,0.8-0.6c0.3,0.1,0.5,0.2,0.8,0.4
			C21.2,21,21.7,21.4,22.2,21.8z"/>
		<path class="st3" d="M7.6,18.5c0,0-0.1,0.1-0.2,0.2c-0.7,0.1-1.2,0.2-3-0.2c-0.5-0.1-0.9-0.2-1.3-0.3C5,18.5,7.6,18.5,7.6,18.5z"
			/>
		<path class="st2" d="M7.3,18.7C7.1,18.8,6.8,19,6.5,19c-0.3,0-1.4-0.2-2.4-0.4c-0.7-0.2-1.2-0.3-1.6-0.5c0.4,0.1,0.9,0.2,1.4,0.2
			c0.2,0,0.3,0.1,0.5,0.1C5.9,18.7,6.9,18.7,7.3,18.7z"/>
		<path class="st10" d="M7.1,20.3c0.1,0.1,0.2,0.3,0.3,0.4c0.4,0.4,0.7,0.7,0.7,0.7S3.3,20,1.3,17.9c0,0,2.2,0.9,3.5,1.3
			C6.2,19.6,6.2,19.6,7.1,20.3z"/>
		<path class="st2" d="M1.3,17.9c0,0,2.4,0.8,3.5,1c1.1,0.2,1.5,0.2,1.7,0.5c0.1,0.2,0.3,0.5,0.5,0.8c-0.5-0.3-1.2-0.6-2.4-1
			C3.1,18.9,1.3,17.9,1.3,17.9z"/>
		<path class="st2" d="M9.4,22.5c-0.7-0.2-1.2-0.7-1.4-1c0,0-0.2,0.1-0.3,0.3C8,22.6,9,22.9,9.4,22.5z"/>
		<path class="st10" d="M7.7,21.9c0,0.1,0,0.1,0,0.2c0,0.4,0.7,0.9,1.5,1c0.8,0.1,0.8-0.2,1.3,0c0,0-0.6-0.4-1-0.5
			C8.9,22.8,8,22.5,7.7,21.9z"/>
		<path class="st5" d="M8.4,21.6c0,0,1,1.6,3.8,1.9c-1.2-0.5-2-1.5-2-1.5C9.1,22.2,8.4,21.6,8.4,21.6z"/>
		<path class="st12" d="M17.4,17.6c0,0.3,0.1,0.7,0.6,0.7c0.3,0,2.2-0.5,2.8,0c-0.5-1.1-2-0.5-2.6-0.4C18,18,17.7,18,17.4,17.6z"/>
		<path class="st12" d="M20.1,19c0.1,0.1,0.2,1.2-0.9,1.4c-1,0.2-1.6-0.7-1.7-1.8C18.1,19.3,19.4,19.7,20.1,19z"/>
		<path class="st13" d="M17.4,18.3c0,0,0.8,0.9,1.6,0.9c0.6,0,1.1-0.2,1.1-0.2l0,0c-0.1,0.2-0.3,0.4-0.9,0.5
			c-0.6,0.1-1.4-0.3-1.7-0.9C17.4,18.5,17.4,18.4,17.4,18.3z"/>
		<path class="st14" d="M17.8,18.5c0.1,0,0.3,0.1,0.7,0c0.1,0,0.2-0.1,0.3-0.1c0.1,0.2,0.3,0.4,0.3,0.6C18.5,19,18,18.6,17.8,18.5z"
			/>
		<path class="st13" d="M17.4,17.5c0,0,0,0.1,0,0.1c0.1,0.2,0.2,0.4,0.5,0.4c0.5,0,2.4-0.7,2.9,0.3c0,0,0.1-2-1.5-2.2
			c-0.6-0.1-1.1,0.1-1.3,0.3c-0.3,0.3-0.1,0.4-0.2,0.5C17.6,17.3,17.4,17.2,17.4,17.5z"/>
		<path class="st15" d="M18.8,18.4c0.4-0.1,0.7-0.1,0.7-0.1s0,0.2,0.1,0.4c0,0.1,0,0.1,0.1,0.1c-0.2,0.1-0.4,0.1-0.5,0.1
			C18.9,18.8,18.8,18.5,18.8,18.4z"/>
		<path class="st16" d="M18,16.8c0,0,0.1-0.5,0.9-0.6c0.7-0.1,1.5,0.5,1.7,1.3C20.6,17.6,19.6,15.8,18,16.8z"/>
	</g>
</g>
</svg>
