<svg version="1.1" id="Layer_1" xmlns="http://www.w3.org/2000/svg" xmlns:xlink="http://www.w3.org/1999/xlink" x="0px" y="0px"
	 viewBox="0 0 15 32" style="enable-background:new 0 0 15 32;" xml:space="preserve">
<style type="text/css">
	.st0{fill:#53DEE9;}
	.st1{fill:#461B00;}
	.st2{fill:#4D4D4D;}
	.st3{fill:#508BE0;}
	.st4{fill:#79A9E9;}
	.st5{fill:#31609D;}
	.st6{fill:#3AC125;}
	.st7{fill:#7ED732;}
	.st8{fill:#2F9D1E;}
	.st9{fill:#E6E6E6;}
	.st10{fill:#C2C2C2;}
	.st11{fill:#E1C31E;}
	.st12{fill:#EFDF10;}
	.st13{fill:#CC9933;}
	.st14{fill:none;}
	.st15{fill:#AF7C25;}
	.st16{fill:#FFB170;}
	.st17{fill:#CF8F5B;}
	.st18{fill:#FFDEC2;}
</style>
<path class="st0" d="M8.1,17.2c0.7,1.2-0.3,2.1-1.6,2.8c-1.2,0.7-2.6,1.1-3.2,0c-0.7-1.2-0.1-2.9,1.1-3.6C5.7,15.7,7.4,16,8.1,17.2z
	"/>
<g id="Layer_x0020_1">
	<g id="_439977312">
		<g>
			<path class="st1" d="M12.7,19.2l0.7-1.2c0.4-0.7,0.7-1.4,0.9-2.2c0.1-0.5,0.3-1.4-0.2-1.6c-0.2-0.1-0.4,0-0.6,0.1
				c0,0-0.1-0.1-0.1-0.1c-0.2-0.1-0.5,0-0.6,0.1c-0.1,0.1-0.2,0.2-0.2,0.3c-0.2,0.2-0.2,0.3-0.4,0.5c-0.1,0.1-0.2,0.2-0.3,0.2
				c-0.1,0.1-0.3,0.2-0.4,0.3c0-0.2-0.1-0.4-0.1-0.6c-0.1-0.6-0.3-1.3-0.7-1.8c-0.1-0.1-0.2-0.3-0.3-0.4l0,0l0,0
				c-0.1-0.2-0.3-0.3-0.5-0.5c-0.7-0.6-1.6-0.8-2.5-0.8c-1,0-2,0.2-2.8,1c-0.7,0.8-1,1.9-1.3,3c0,0-0.1-0.1-0.1-0.1
				c-0.3-0.2-0.4-0.4-0.6-0.6c-0.1-0.1-0.1-0.1-0.2-0.2c-0.1-0.1-0.4-0.2-0.6-0.2c-0.1,0-0.1,0.1-0.2,0.1c-0.1,0-0.2-0.1-0.4,0
				c-0.5,0.1-0.5,0.7-0.5,1.1c0,0.6,0.2,1.3,0.4,1.9c0.2,0.5,0.3,1,0.5,1.5l0,0c0.3,0.3,0.7,0.5,1.1,0.8c0.4-0.1,0.8-0.2,1.2-0.3
				l0.8,0.9l2,0.1c0.2,0.4,0.3,0.7,0.4,1.1L9,21.1l1.1-1.4c0.7,0.1,0.9,0.2,1.5,0.4C11.9,19.9,12.6,19.4,12.7,19.2z"/>
			<path class="st2" d="M10.1,19.5L9,20.9l-1.9,0.4c-0.1-0.4-0.2-0.7-0.4-1.1l-2-0.1l-0.8-0.9c-0.4,0.1-0.8,0.2-1.2,0.3
				c-0.5-0.3-0.9-0.5-1.2-0.9l-0.8,0.2c0,0.4-0.1,0.7-0.1,1.1c0,2.1,0.7,4.1,2.4,5.5c1.3,1,2.9,1.4,4.5,1.4c1.6,0,3.2-0.4,4.5-1.4
				c1.7-1.3,2.4-3.4,2.4-5.5c0-0.4,0-0.8-0.1-1.2l0-0.3L13.4,18c-0.4,0.7-0.7,1.2-1.8,1.8C10.9,19.6,10.8,19.6,10.1,19.5z"/>
			<path class="st2" d="M9.4,21.3l-2.2,0.5l-0.1-0.2l2.1-0.4l1-1.3l0.3,0L9.4,21.3z M13.4,18.4c-0.3,0.6-0.8,1.1-1.6,1.7l0.3,0.1
				c0.6-0.4,1.3-1.1,1.6-1.7L13.4,18.4z M4.3,20.5l-0.8-0.9l0.2-0.1l0.7,0.9l1.9,0.1l0,0.1L4.3,20.5z M2.2,19.7
				c-0.5-0.3-0.9-0.8-0.9-0.8l0.2,0c0.3,0.3,0.7,0.6,1,0.8L2.2,19.7z"/>
			<path class="st3" d="M2.2,14.9c-0.2-0.3-0.3-0.3-0.3-0.2C1.8,15,2,15.4,2,15.4s-0.3-0.1-0.6-0.6c-0.3-0.4-0.6,0.2,0.1,2.3
				c0.2,0.6,0.4,1.1,0.5,1.5c0-0.6,0.3-1,0.5-1.3c0.1-0.2,0.3-0.5,0.3-0.8C2.9,15.8,2.6,15.4,2.2,14.9z"/>
			<path class="st4" d="M2.2,14.9c-0.2-0.2-0.3-0.3-0.3-0.3c0.7,0.7,0.9,1.6,1,2c0-0.1,0-0.1,0-0.2C2.9,15.8,2.6,15.4,2.2,14.9z"/>
			<path class="st5" d="M1.3,14.7c-0.2,0-0.3,0.7,0.3,2.4c0.2,0.6,0.4,1.1,0.5,1.5c0-0.6,0.3-1,0.5-1.3c0,0,0.1-0.1,0.1-0.1
				C2,16.2,1.3,15.4,1.3,14.7z"/>
			<path class="st6" d="M4.3,17.8c0,0,0.1-1.2-0.6-1.6c-0.4-0.2-0.7-0.4-0.9-0.6C3,15.8,3,16.2,3,16.5c0,0.3-0.2,0.6-0.3,0.9
				c-0.3,0.5-0.6,1.2-0.4,1.7c0.1,0.1,0.3,0.2,0.4,0.2c0.4-0.1,0.8-0.2,1.2-0.3L4.7,20h0.1c0.7-0.8,0.7-1.2,0.7-2.3
				c0-2.2,0.5-4.1,1.9-4.7C8,12.6,9,12.6,9.9,13c-0.1-0.2-0.3-0.3-0.4-0.4c-0.6-0.5-1.4-0.7-2.2-0.7c-2.7,0-3.1,1.6-3.7,3.9
				C3.6,15.8,5,16.5,4.3,17.8z"/>
			<path class="st7" d="M3.7,16.5C3.4,16.3,3.1,16.1,3,16c0-0.2-0.1-0.3-0.1-0.5c0.2,0.2,0.5,0.4,0.9,0.6c0.4,0.2,0.5,0.7,0.6,1
				C4.3,17.2,4.2,16.8,3.7,16.5z M6.2,12.2c-1.8,0.6-2.1,3.3-2.2,3.9c-0.2-0.2-0.4-0.3-0.4-0.3c0.5-2.3,1-3.9,3.7-3.9
				c0.6,0,1.3,0.1,1.8,0.4C8.4,12.1,7.4,11.9,6.2,12.2z"/>
			<path class="st8" d="M2.7,17.3C2.7,17.3,2.7,17.3,2.7,17.3c-0.3,0.6-0.6,1.2-0.4,1.8c0.1,0.1,0.3,0.2,0.4,0.2
				c0.3-0.1,0.7-0.2,1-0.2C3.5,18.5,3.1,17.9,2.7,17.3z"/>
			<path class="st9" d="M11.6,19.8c-0.1-0.5-0.2-1.2-0.4-2.3c-0.4-2.3-0.5-3.6-1.3-4.6c-0.4-0.3-1-0.6-1.8-0.6
				c-1.9,0-3.3,1.1-3.3,4.9c0,1,0,1.9-0.1,2.7l1.9,0.1c0.2,0.4,0.3,0.7,0.4,1.1L9,20.9l1.1-1.4C10.8,19.6,10.9,19.6,11.6,19.8
				L11.6,19.8z"/>
			<path class="st10" d="M11.6,19.9c-0.6-0.2-0.8-0.3-1.5-0.4L9,20.9l-1.9,0.4c-0.1-0.4-0.2-0.7-0.4-1.1L4.8,20
				c0-0.6,0.1-1.2,0.1-1.9c1.5,2.4,5.7,2,6.4-0.6l0,0C11.4,18.6,11.5,19.3,11.6,19.9L11.6,19.9z M6.9,16.3c0.7,1.6,3.5,1.3,3.5,0.1
				C8.4,16.8,6.9,16.3,6.9,16.3z"/>
			<path class="st6" d="M12.4,15.4c-0.1,0.1-0.2,0.2-0.4,0.3c-0.2,0.1-0.4,0.3-0.6,0.4c0,0.3,0.1,0.7,0.1,1c0.1,0.5,0.2,1.5,0.3,2.3
				c0.9-0.9,1.2-1.5,0.7-2.7c-0.1-0.2-0.1-0.4-0.2-0.6C12.3,15.8,12.3,15.6,12.4,15.4z"/>
			<path class="st7" d="M12.4,15.4c-0.1,0.1-0.2,0.2-0.4,0.3c-0.2,0.1-0.4,0.3-0.6,0.4c0,0.1,0,0.2,0,0.3c0.5-0.2,0.8-0.5,0.9-0.6
				C12.3,15.6,12.4,15.5,12.4,15.4z"/>
			<path class="st8" d="M11.7,18.5c0,0.3,0.1,0.6,0.1,0.8c0.8-0.7,1.1-1.2,0.9-2.1c-0.1,0.2-0.3,0.3-0.4,0.5
				C12,18,11.8,18.3,11.7,18.5z"/>
			<path class="st3" d="M12.9,14.8c-0.3,0.4-0.4,0.7-0.3,1.2c0,0.2,0.1,0.3,0.2,0.5c0.1,0.3,0.3,0.7,0.3,1.2
				c0.9-1.7,1.2-3.5,0.7-3.1c-0.2,0.2-0.7,0.7-0.8,0.7C13,15.1,13.4,14.1,12.9,14.8z"/>
			<path class="st4" d="M12.9,14.8c-0.3,0.4-0.4,0.7-0.3,1.2c0,0.1,0,0.2,0.1,0.3c0-0.3,0-0.8,0.2-1.2c0.1-0.3,0.2-0.5,0.3-0.6
				C13.1,14.5,13,14.6,12.9,14.8z"/>
			<path class="st5" d="M12.9,17c0.1,0.2,0.1,0.5,0.1,0.7c0.8-1.4,1.1-2.9,0.9-3.1C13.9,15.4,13.5,16.3,12.9,17z"/>
			<path class="st1" d="M5.7,13c-0.2,0-0.3,0.1-0.5,0.1l0,0c0,0-0.3,0.2-0.6,0.1c-0.2-0.1-0.2,0.3,0.2,0.3c-0.1,0.1-0.1,0.3-0.1,0.4
				c0,0.5,0.4,1,1,1c0.5,0,0.9-0.4,0.9-1C6.7,13.4,6.2,13,5.7,13z"/>
			<path class="st9" d="M6.1,13.3c0.1,0.1,0.2,0.3,0,0.5c-0.1,0.1-0.3,0.1-0.5,0c-0.1-0.1-0.1-0.3,0-0.5C5.8,13.2,6,13.2,6.1,13.3z
				 M5.7,14c0.1,0.1,0.1,0.2,0,0.2c-0.1,0.1-0.2,0.1-0.2,0c-0.1-0.1-0.1-0.2,0-0.2C5.5,13.9,5.6,13.9,5.7,14z"/>
			<path class="st11" d="M11.7,15.2c0-0.5-1.2-0.8-2.6-0.6c-1.4,0.1-2.5,0.6-2.5,1.1v0.1l0,0l0,0.2c0.5,0.8,4.4,0.6,5.1-0.5
				L11.7,15.2L11.7,15.2z"/>
			<path class="st12" d="M6.8,15.7c0,0.3,0.5,0.5,1.2,0.6c0.7,0.1,1.9-0.1,2.6-0.3c0.5-0.2,0.9-0.4,0.9-0.7c0-0.4-1.1-0.7-2.4-0.6
				C7.8,14.8,6.8,15.2,6.8,15.7z"/>
			<path class="st13" d="M10.9,15.8c0.1,0,0.1-0.1,0.2-0.1c-0.3,0.1-0.7,0.1-1.1,0.2c-0.2,0-0.3,0-0.5,0.1C9.3,16,9,16,8.6,16
				c-0.1,0-0.1,0-0.2,0c-0.7,0-1-0.1-1.1-0.4l0,0l0,0c0,0,0,0,0,0c0,0.2,0.3,0.4,1.1,0.4c0.1,0,0.1,0,0.2,0c0.3,0,0.7,0,0.9-0.1
				c0.2,0,0.3,0,0.5-0.1C10.3,15.9,10.7,15.9,10.9,15.8z"/>
			<path class="st13" d="M6.8,15.7C6.8,15.7,6.8,15.7,6.8,15.7c0-0.4,1-0.8,2.3-0.9c1.3-0.1,2.3,0.1,2.4,0.6c0,0,0,0,0,0
				c0-0.4-1.1-0.7-2.4-0.6C7.8,14.8,6.8,15.2,6.8,15.7z"/>
			<path class="st14" d="M9.8,15L9.8,15L9.8,15z"/>
			<path class="st11" d="M11.4,15C11.4,14.9,11.4,14.9,11.4,15L11.4,15C11,15,10.4,15.1,10,15C9.9,15,9.8,15,9.8,15
				c0,0,0.1,0.1,0.3,0.1C10.3,15.1,10.8,15.1,11.4,15C11.4,15,11.4,15,11.4,15z"/>
			<path class="st11" d="M11.2,15.7c0.1,0,0.1-0.1,0.1-0.1c-0.3,0.1-0.7,0.2-1.1,0.2c-0.2,0-0.6,0.1-0.7,0.1c-0.2,0-0.2,0-0.2-0.1
				c0,0,0.1,0,0.1,0c0,0,0,0,0,0c-0.1,0.1,0.7,0,0.7-0.2c0-0.2-0.8-0.1-1.1-0.1c-0.3,0-0.5,0.1-0.5,0.2c0,0.1,0.1,0.1,0.2,0.2
				c0,0-0.1,0-0.1,0h0c0,0,0,0-0.1,0c-0.1,0-0.4,0-0.6-0.1c-0.3-0.1-0.5-0.3-0.3-0.5c0.2-0.2,0.8-0.3,1.1-0.4c0.2,0,0.7-0.1,0.9-0.1
				c0.1,0,0.5-0.2,0.8-0.3l0,0c0,0-0.1,0-0.1,0c-0.3,0.1-0.6,0.2-1,0.3c-0.4,0.1-1.1,0.1-1.6,0.3c-0.2,0.1-0.3,0.3-0.3,0.4
				c0,0.3,0.3,0.4,1.1,0.4c0.1,0,0.1,0,0.2,0C9,16,9.3,16,9.5,16c0.2,0,0.3,0,0.5-0.1C10.4,15.9,10.8,15.8,11.2,15.7z"/>
			<path class="st13" d="M9.8,15L9.8,15L9.8,15z"/>
			<path class="st13" d="M11.4,15c-0.6,0.1-1,0.1-1.3,0.1C9.9,15,9.8,15,9.8,15c0,0,0,0.1,0,0.1c0,0,0.1,0.1,0.3,0.1
				C10.3,15.2,10.8,15.2,11.4,15L11.4,15z"/>
			<path class="st13" d="M7.5,15.7c0-0.1,0-0.1,0.1-0.2c0.2-0.2,0.8-0.3,1.1-0.4c0.2,0,0.7-0.1,0.9-0.1c0.1,0,0.4-0.2,0.7-0.2l0-0.1
				c-0.3,0.1-0.6,0.2-0.7,0.2C9.4,15,8.9,15,8.7,15.1c-0.3,0-0.8,0.1-1.1,0.4C7.5,15.5,7.5,15.6,7.5,15.7z"/>
			<path class="st15" d="M6.7,16.1c0.1,0.6,1.1,0.7,2.1,0.7c1.4,0,3-0.4,3-1.2l0-0.4c0,0.6-1.2,1-2.5,1.1c-1.3,0.1-2.6-0.1-2.6-0.6
				C6.6,15.7,6.7,16,6.7,16.1z"/>
			<path class="st11" d="M8.1,15.5c0,0.1,0.2,0.1,0.4,0.1c0.2,0,0.4-0.1,0.4-0.1c0-0.1-0.2-0.1-0.4-0.1c-0.1,0-0.1,0-0.2,0
				c0,0,0-0.1-0.1-0.1c0,0,0,0,0,0c0,0,0,0,0,0C8.3,15.4,8.2,15.4,8.1,15.5C8.1,15.4,8.1,15.5,8.1,15.5z"/>
			<path class="st13" d="M8.2,15.6c0,0,0.2,0.1,0.3,0.1c0.2,0,0.4-0.1,0.4-0.2v-0.1c0,0.1-0.2,0.1-0.4,0.1
				C8.3,15.6,8.2,15.5,8.2,15.6L8.2,15.6C8.1,15.5,8.1,15.6,8.2,15.6z"/>
			<path class="st13" d="M8.4,15.8c0,0,0,0.1,0.1,0.2c0,0,0,0,0.1,0h0c0,0,0.1,0,0.1,0C8.5,16,8.4,15.9,8.4,15.8z"/>
			<path class="st13" d="M9.4,15.9c0,0,0.1,0,0.1,0C9.5,15.9,9.5,15.9,9.4,15.9c0.1,0,0.1,0,0.1,0c0.1,0,0.2,0,0.4,0
				c0.2-0.1,0.2-0.1,0.2-0.2C10.1,15.9,9.3,15.9,9.4,15.9c0.1,0,0.1,0,0.1-0.1C9.4,15.8,9.3,15.9,9.4,15.9
				C9.3,15.9,9.3,15.9,9.4,15.9z"/>
			<path class="st13" d="M9.2,15.8c0,0,0,0.1,0,0.1h0c0.1,0,0.1,0,0.1,0C9.3,15.9,9.2,15.9,9.2,15.8z"/>
			<path class="st12" d="M8.3,15.4C8.3,15.4,8.4,15.4,8.3,15.4c0.1,0,0.2,0,0.2,0C8.5,15.4,8.4,15.4,8.3,15.4
				C8.4,15.4,8.3,15.4,8.3,15.4z"/>
			<path class="st13" d="M8.2,15.3L8.2,15.3C8.2,15.4,8.2,15.4,8.2,15.3C8.3,15.4,8.3,15.4,8.2,15.3C8.3,15.3,8.2,15.3,8.2,15.3z"/>
			<path class="st12" d="M9.5,15.8c0,0,0.4,0,0.4-0.2c0-0.1-0.3-0.1-0.7-0.1c0,0-0.1,0-0.1,0c0,0,0.3,0,0.4,0.1
				C9.6,15.8,9.5,15.8,9.5,15.8L9.5,15.8z"/>
			<path class="st12" d="M8.9,15.6C8.9,15.6,8.9,15.6,8.9,15.6c0.1,0,0.3,0,0.3,0c0,0-0.1,0.2,0.2,0.3c0,0-0.7,0.1-0.8-0.1
				c-0.1-0.1,0-0.1,0-0.1c0.1,0,0.1,0,0.2,0C8.8,15.7,8.8,15.7,8.9,15.6z"/>
			<path class="st1" d="M8.6,13.5c0.5,0,1,0.2,1.2,0.6c0.2,0.4,0.1,1,0,1.1c-0.2,0.1-0.5-0.2-1-0.1c-0.5,0.1-0.8,0-1-0.1
				c-0.1-0.1-0.1-0.1-0.1-0.1C7.6,14.3,7.8,13.6,8.6,13.5z"/>
			<path class="st16" d="M8,14.4c0.1-0.1,0.2-0.2,0.2-0.3c0-0.3,0.4-0.3,0.6-0.3c0.8,0.1,0.8,1,0.7,1.1c0,0,0,0,0,0
				c0,0-0.1,0-0.2-0.1c-0.2-0.1-0.4-0.1-0.5-0.1s-0.5,0-0.7-0.1C8,14.6,8,14.5,8,14.4C8,14.5,8,14.4,8,14.4z"/>
			<path class="st17" d="M9.6,14.9c-0.1,0-0.3-0.1-0.8-0.1c-0.3,0-0.5,0-0.7,0c-0.2,0-0.2-0.2-0.2-0.3c0.1,0.3,0.9,0.2,1.2,0.3
				C9.3,14.8,9.5,14.8,9.6,14.9z"/>
			<path class="st18" d="M9.4,14.2c0.1,0.2-0.2,0-0.4-0.2C8.8,13.8,9.3,13.9,9.4,14.2z"/>
			<path class="st9" d="M1.1,18.9c0,0.3,0,0.6,0,0.8c0,4.3,2.9,6.5,6.5,6.5c3.6,0,6.5-2.2,6.5-6.5c0-0.4,0-0.8-0.1-1.2
				c-0.5,0.9-1,1.2-1.6,1.8c0.1,0.3,0.2,0.7,0.2,1c-0.2,0.3-0.3,0.4-0.6,0.6c0.1-0.1,0.4-0.6,0.4-0.7c-0.1-0.3-0.1-0.5-0.3-0.8
				L10.7,20l-1.2,1.5L7.2,22c0,0.2,0.1,0.5,0.1,0.8c-0.1,0.2-0.5,0.4-0.7,0.7l0.1,0.8c-0.2-0.3-0.3-0.5-0.3-0.9
				c0.2-0.2,0.4-0.4,0.7-0.6c-0.1-0.8-0.3-1.5-0.5-2l-2.3-0.1c-0.2,0.4-0.5,0.8-0.6,1.2c0.1-0.5,0.2-1,0.4-1.4l-0.7-0.9l-1.3,0.3
				C2.1,19.9,1.5,19.4,1.1,18.9z"/>
			<path class="st10" d="M7.1,26.2c0.1,0,0.3,0,0.4,0c3.5,0,6.4-2.1,6.5-6.2c-0.5,0.2-1,0.5-1.6,0.8c0,0.2,0.1,0.4,0.1,0.6
				c-0.2,0.3-0.3,0.4-0.6,0.6c0.1-0.1,0.4-0.6,0.4-0.7c0-0.1-0.1-0.3-0.1-0.4C10.1,22.1,8,23.9,7.1,26.2z"/>
		</g>
		<path class="st12" d="M10.7,11.1c-0.7,0.8-0.3,1.2,0.5,0.5C11.9,11,11.4,10.4,10.7,11.1z M8.5,10c0.1,1,0.6,1,0.7,0
			C9.2,9,8.4,9,8.5,10z M9.8,10.1c-0.3,1,0.2,1.2,0.6,0.2C10.8,9.4,10,9.1,9.8,10.1z"/>
	</g>
</g>
</svg>
